# xmcd CD database file
#
# Track frame offsets:
#	150
#	36350
#	67707
#	99354
#	106475
#	140522
#	165702
#	193715
#	214205
#	241782
#	273012
#
# Disc length: 4067 seconds
#
# Revision: 0
# Processed by: cddbd v1.4PL0 Copyright (c) Steve Scherf et al.
# Submitted via: CDex 1.50
#
DISCID=930fe10b
DTITLE=David Carr, Jr. - Sounds Of Innosense
DYEAR=1995
DGENRE=Jazz
TTITLE0=Sounds Of Innosense
TTITLE1=Feed Up
TTITLE2=A Dream I Had
TTITLE3=~Interlude
TTITLE4=Don't Cry
TTITLE5=If It Warms Up
TTITLE6=Luvin' U
TTITLE7=Suits
TTITLE8=Liberian Girl
TTITLE9=Sweet Jam
TTITLE10=Say What
EXTD=YEAR: 1995
EXTT0=
EXTT1=
EXTT2=
EXTT3=
EXTT4=
EXTT5=
EXTT6=
EXTT7=
EXTT8=
EXTT9=
EXTT10=
PLAYORDER=
